<svg width="20" height="20" viewBox="0 0 263 116" fill="none" xmlns="http://www.w3.org/2000/svg">
<path d="M125.152 38.4849L115.04 41.0485C114.752 39.8783 114.031 38.9557 112.88 38.2832C111.728 37.6107 110.459 37.2744 109.076 37.2744C106.483 37.2744 105.186 38.1379 105.186 39.8676C105.186 40.4244 105.369 40.9032 105.732 41.3067C106.098 41.7102 107.123 42.2106 108.813 42.8078L115.059 45.0351C116.689 45.6134 118.209 46.4635 119.61 47.5879C121.012 48.7123 122.023 49.9389 122.639 51.2732C123.255 52.6074 123.562 54.0304 123.562 55.5476C123.562 59.5207 122.002 62.8025 118.881 65.393C115.761 67.9835 111.597 69.28 106.394 69.28C101.94 69.28 98.0552 68.3789 94.7411 66.5712C91.4271 64.7662 89.119 62.009 87.8117 58.3022L99.1608 56.0829C100.14 58.8671 102.561 60.2605 106.421 60.2605C108.035 60.2605 109.2 59.9673 109.921 59.3808C110.642 58.7944 111.002 58.1273 111.002 57.3795C111.002 56.9007 110.862 56.4783 110.585 56.1125C110.305 55.7467 110.01 55.483 109.692 55.319C109.375 55.1549 107.882 54.5819 105.213 53.5973C101.603 52.2658 99.0747 51.214 97.6221 50.4366C96.1695 49.6592 94.9617 48.5025 93.9906 46.9665C93.0195 45.4305 92.5353 43.6282 92.5353 41.5542C92.5353 37.9658 93.8561 34.9287 96.4977 32.4432C99.1393 29.9576 103.177 28.7148 108.611 28.7148C112.759 28.7148 116.312 29.5891 119.269 31.3376C122.233 33.0888 124.191 35.4721 125.152 38.4849Z" fill="white"/>
<path d="M150.021 52.8603H139.817L137.176 68.6748H125.757L132.326 29.3524H143.745L141.329 43.8138H151.532L153.948 29.3524H165.37L158.801 68.6748H147.382L150.021 52.8603Z" fill="white"/>
<path d="M183.379 29.3524L176.813 68.6748H165.628L172.197 29.3524H183.379Z" fill="white"/>
<path d="M223.56 29.3524L216.991 68.6748H208.251L200.708 53.5785C198.656 49.4494 197.357 46.1837 196.816 43.7815C196.854 44.3572 196.872 44.8091 196.872 45.1373C196.872 46.2133 196.727 47.6336 196.439 49.4009L193.211 68.6748H183.632L190.201 29.3524H200.792L205.112 38.4553C208.106 44.7553 210.056 49.4117 210.96 52.4272C210.903 51.639 210.874 51.0526 210.874 50.6679C210.874 49.5543 211.132 47.4211 211.651 44.2711L214.156 29.3497H223.56V29.3524Z" fill="white"/>
<path d="M254.328 59.631L252.8 68.6775H223.821L230.39 29.3551H258.651L257.209 37.9685H240.34L239.318 44.1339H253.492L252.052 52.6612H237.906L236.752 59.6337H254.328V59.631Z" fill="white"/>
<path d="M50.6897 75.5962L44.1207 114.919H33.0487L36.5645 93.9742C36.9304 91.8222 37.4011 89.5761 37.9768 87.2331C38.4367 85.3313 38.7542 83.8814 38.9263 82.8834C38.695 83.4779 38.3587 84.3817 37.9176 85.5922C36.9761 88.1073 36.1099 90.2593 35.3217 92.0455L25.1455 114.919H18.06L15.3619 92.0455C15.1118 90.028 14.9396 87.8787 14.8454 85.5922C14.7701 84.2284 14.6921 83.1712 14.6168 82.4234C14.0788 87.8599 13.4843 92.5459 12.8333 96.4813L9.75059 114.919H0.843994L7.39952 75.5962H23.2194L25.3284 92.9978C25.5005 94.4181 25.6566 95.4268 25.7911 96.0213C26.0601 95.139 26.4555 94.1303 26.9747 92.9978L34.7676 75.5962H50.6897Z" fill="white"/>
<path d="M71.9757 106.884H61.4497L57.7779 114.921H48.032L66.2325 75.5988H78.5689L84.6752 114.921H73.0705L71.9757 106.884ZM71.2736 98.7571L69.7107 87.3784L64.5297 98.7571H71.2736Z" fill="white"/>
<path d="M123.911 84.7287L113.8 87.2923C113.512 86.1221 112.791 85.1995 111.64 84.527C110.488 83.8545 109.219 83.5182 107.836 83.5182C105.243 83.5182 103.946 84.3817 103.946 86.1114C103.946 86.6682 104.129 87.1497 104.492 87.5505C104.858 87.954 105.883 88.4544 107.572 89.0515L113.819 91.2816C115.449 91.8599 116.969 92.7099 118.37 93.8344C119.774 94.9561 120.783 96.1854 121.399 97.5197C122.015 98.8539 122.322 100.277 122.322 101.794C122.322 105.767 120.761 109.049 117.641 111.639C114.521 114.23 110.357 115.527 105.154 115.527C100.699 115.527 96.8151 114.623 93.501 112.818C90.1869 111.013 87.8789 108.255 86.5716 104.549L97.9207 102.329C98.8999 105.114 101.321 106.507 105.181 106.507C106.795 106.507 107.96 106.214 108.681 105.627C109.402 105.041 109.762 104.374 109.762 103.626C109.762 103.147 109.622 102.722 109.345 102.359C109.065 101.993 108.769 101.73 108.452 101.568C108.135 101.404 106.642 100.831 103.973 99.8465C100.363 98.515 97.8346 97.4632 96.382 96.6858C94.9294 95.9084 93.7216 94.7517 92.7505 93.2157C91.7794 91.6797 91.2952 89.8774 91.2952 87.8034C91.2952 84.2149 92.616 81.1779 95.2576 78.6924C97.8992 76.2068 101.937 74.964 107.371 74.964C111.519 74.964 115.072 75.8383 118.028 77.5868C120.993 79.3326 122.951 81.7132 123.911 84.7287Z" fill="white"/>
<path d="M146.685 84.527L141.585 114.919H130.163L135.261 84.527H126.849L128.377 75.4805H156.853L155.355 84.527H146.685Z" fill="white"/>
<path d="M184.611 105.875L183.083 114.921H154.104L160.673 75.5988H188.934L187.492 84.2122H170.623L169.601 90.3777H183.775L182.336 98.905H168.189L167.035 105.877H184.611V105.875Z" fill="white"/>
<path d="M217.115 98.4396L221.373 114.919H209.739L206.277 99.9676H201.623L199.11 114.919H187.896L194.465 75.5962H211.635C216.302 75.5962 219.759 76.6184 222.005 78.6654C224.251 80.7098 225.376 83.4913 225.376 87.0044C225.376 92.6292 222.621 96.4437 217.115 98.4396ZM202.997 91.7873H207.42C211.67 91.7873 213.795 90.3454 213.795 87.4671C213.795 85.0461 212.012 83.8383 208.445 83.8383H204.332L202.997 91.7873Z" fill="white"/>
<path d="M262.885 84.7287L252.773 87.2923C252.485 86.1221 251.764 85.1995 250.613 84.527C249.462 83.8545 248.192 83.5182 246.81 83.5182C244.216 83.5182 242.92 84.3817 242.92 86.1114C242.92 86.6682 243.103 87.1497 243.469 87.5505C243.832 87.954 244.859 88.4544 246.549 89.0515L252.795 91.2816C254.425 91.8599 255.945 92.7099 257.346 93.8344C258.75 94.9561 259.759 96.1854 260.375 97.5197C260.991 98.8539 261.298 100.277 261.298 101.794C261.298 105.767 259.738 109.049 256.617 111.639C253.497 114.23 249.333 115.527 244.13 115.527C239.676 115.527 235.791 114.623 232.477 112.818C229.163 111.013 226.855 108.255 225.548 104.549L236.9 102.329C237.879 105.114 240.3 106.507 244.16 106.507C245.774 106.507 246.939 106.214 247.66 105.627C248.38 105.041 248.741 104.374 248.741 103.626C248.741 103.147 248.601 102.722 248.324 102.359C248.044 101.993 247.748 101.73 247.431 101.568C247.113 101.404 245.621 100.831 242.955 99.8465C239.345 98.515 236.816 97.4632 235.364 96.6858C233.911 95.9084 232.703 94.7517 231.732 93.2157C230.761 91.6797 230.277 89.8774 230.277 87.8034C230.277 84.2149 231.598 81.1779 234.239 78.6924C236.881 76.2068 240.918 74.964 246.352 74.964C250.5 74.964 254.054 75.8383 257.01 77.5868C259.964 79.3326 261.922 81.7132 262.885 84.7287Z" fill="white"/>
<path d="M43.9701 62.5496C56.6077 62.5496 69.2453 62.5577 81.883 62.5308C82.655 62.5281 82.8379 62.7379 82.8272 63.4858C82.8056 64.8281 82.7249 66.1462 82.2058 67.397C81.0813 70.1112 78.9078 71.4589 76.1291 71.9889C75.3651 72.1341 74.5904 72.1718 73.8103 72.1718C53.9231 72.1664 34.0386 72.1664 14.1515 72.1691C11.639 72.1691 9.30139 71.6499 7.41032 69.8611C5.40089 67.9619 5.03505 65.5113 5.13996 62.9101C5.15341 62.5981 5.30136 62.5389 5.5596 62.5523C5.78018 62.5631 6.00345 62.5523 6.22672 62.5523C18.8078 62.5496 31.389 62.5496 43.9701 62.5496Z" fill="white"/>
<path d="M69.7699 8.79538C66.3912 9.65349 64.285 11.6602 63.521 15.0954C62.6979 11.6683 60.6185 9.62928 57.2452 8.79269C60.6831 8.00183 62.6871 5.90901 63.5102 2.52768C64.3441 5.89018 66.3267 8.00721 69.7699 8.79538Z" fill="white"/>
<path d="M82.8245 5.63195C80.3039 6.30982 78.7464 7.82429 78.1465 10.404C77.5252 7.83774 75.9596 6.29099 73.318 5.70995C76.4142 4.32729 76.4142 4.32729 78.2219 0.865265C78.7895 3.46111 80.277 5.02132 82.8245 5.63195Z" fill="white"/>
<path d="M81.7027 17.0887C79.1149 17.7101 77.5924 19.2622 76.9872 21.8365C76.3389 19.2837 74.8217 17.6885 72.2151 17.0967C74.7625 16.4619 76.3254 14.942 76.9603 12.3839C77.622 14.8909 79.1311 16.4673 81.7027 17.0887Z" fill="white"/>
<path d="M85.119 31.9966C85.0868 30.918 84.581 30.2912 83.5293 30.0921C82.1977 29.8393 80.8554 29.6268 79.5212 29.3847C78.3214 29.1668 77.7942 29.4304 77.2885 30.5467C76.8823 31.4479 76.4815 33.4277 76.0672 34.3558C75.6745 34.0115 75.4835 33.5864 75.3005 33.156C74.0362 30.1809 72.8069 27.1923 71.4942 24.2387C70.2057 21.3442 67.9864 19.4559 64.8741 18.8372C60.4087 17.9468 55.8653 17.6025 51.3246 17.3684C42.461 16.9111 33.6351 17.3146 24.8308 18.4928C20.6048 19.0577 17.6377 21.0833 16.0372 25.0887C14.9612 27.7814 13.7829 30.4311 12.6531 33.1022C12.4648 33.5461 12.2981 34.0007 11.873 34.3208C11.4238 33.3174 11.0122 32.3517 10.563 31.4048C10.1703 30.5763 9.52198 29.156 8.68001 29.3066C7.26238 29.5595 5.84744 29.8151 4.43519 30.0867C3.36726 30.2939 2.85885 30.9072 2.82657 31.9751C2.77815 33.4977 3.16282 34.154 4.3518 34.4419C6.28591 34.9099 8.22809 36.4244 10.2913 36.9032C9.36865 38.3101 8.50247 39.6578 7.61208 40.992C5.95235 43.4803 5.105 46.1998 5.13459 49.2046C5.16687 52.481 5.16687 55.7601 5.12114 59.0365C5.11038 59.8005 5.31213 59.9834 6.06802 59.9807C17.9282 59.9565 29.7857 59.9619 41.646 59.9619C55.0879 59.9619 68.5298 59.9592 81.9744 59.9726C82.577 59.9726 82.8299 59.892 82.8218 59.1845C82.7787 55.7144 82.7976 52.2416 82.8056 48.7688C82.8083 47.9026 82.69 47.0553 82.5393 46.2079C82.1036 43.7735 80.8742 41.7183 79.5023 39.7223C78.8702 38.8023 78.2838 37.8501 77.6624 36.8871C79.7202 36.4163 81.692 34.9126 83.6503 34.4284C84.7909 34.1486 85.1648 33.4708 85.119 31.9966ZM16.438 31.1547C17.1804 29.3712 17.9363 27.5904 18.6841 25.8096C19.7978 23.1573 21.7507 21.7101 24.6317 21.2878C31.2895 20.3113 37.9768 19.8997 44.6964 19.9132C51.1121 19.9266 57.4981 20.392 63.8385 21.3604C66.3133 21.7397 68.0887 23.1627 69.1001 25.4626C70.0228 27.5581 70.8728 29.6859 71.8009 31.7814C72.0968 32.4513 71.9085 32.5266 71.2682 32.5239C64.1344 32.5051 57.0005 32.5104 49.8666 32.5104C38.8753 32.5104 27.8812 32.5104 16.8899 32.5104C16.5886 32.5104 16.2873 32.5104 15.9565 32.5104C15.9887 31.9724 16.2631 31.577 16.438 31.1547ZM19.7628 52.1663C17.6781 51.8784 15.5933 51.6068 13.5139 51.284C11.873 51.0311 11.2409 50.372 10.8912 48.7392C10.7674 48.1609 10.7567 47.5771 10.8535 47.0042C11.136 45.3068 11.6013 44.9947 13.3068 45.1104C15.4642 45.2557 17.6189 45.409 19.7682 45.6511C20.2389 45.7049 20.6182 45.8636 20.9034 46.2429C22.4394 48.2792 23.5853 50.5442 24.8926 52.8657C23.093 52.6209 21.4279 52.3976 19.7628 52.1663ZM57.9931 53.5355C57.8048 53.9417 57.4793 53.9148 57.1646 53.9336C54.9238 54.0735 52.6803 54.208 50.4369 54.3317C49.0811 54.407 47.7119 54.3882 46.3669 54.5496C44.1396 54.8159 41.9311 54.5469 39.7199 54.4581C36.9223 54.3452 34.1274 54.1219 31.3298 54.017C30.4905 53.9847 29.9956 53.7668 29.6405 52.9383C28.7151 50.7863 27.6714 48.6854 26.6008 46.4016C38.2216 47.8515 49.724 47.8273 61.3448 46.415C60.1747 48.8925 59.0691 51.2086 57.9931 53.5355ZM76.7612 49.7426C76.4223 50.5523 75.7686 51.0634 74.8755 51.1925C71.8654 51.6337 68.8526 52.0694 65.8425 52.5025C64.9683 52.629 64.094 52.7446 63.0557 52.8899C64.129 50.9154 65.1888 49.1427 66.2245 47.3512C66.9642 46.0707 67.9595 45.5542 69.3745 45.4897C71.3113 45.4009 73.2427 45.218 75.1768 45.062C75.9999 44.9947 76.5621 45.2987 76.8473 46.0976C77.2885 47.327 77.2616 48.5536 76.7612 49.7426Z" fill="white"/>
</svg>
